<svg width="214" height="40" viewBox="0 0 214 40" fill="none" xmlns="http://www.w3.org/2000/svg">
<g clip-path="url(#clip0_103_98)">
<path d="M18.3759 39.0205C9.89564 37.9746 3.2909 34.9394 3.62352 32.241C3.67767 31.8014 3.91328 31.3979 4.30585 31.035C4.67683 30.692 4.34227 30.0835 3.85268 30.2076C1.58686 30.7826 0.15677 31.6976 0.012054 32.8692C-0.32089 35.5676 6.28417 38.6028 14.7644 39.6486C19.746 40.263 24.2641 40.0535 27.2139 39.2296C24.6673 39.4704 21.6202 39.4204 18.3759 39.0205Z" fill="black"/>
<path d="M35.9645 26.0521V14.8006C35.9645 14.6717 35.9133 14.5479 35.8221 14.4567L35.074 13.7083C34.7675 13.4018 34.9847 12.878 35.4179 12.878H35.9649H36.4184H36.7909L34.9103 10.7289L33.3954 8.9981C33.2017 8.77667 32.8572 8.77667 32.6635 8.9981L31.1486 10.7289L29.2679 12.878H29.6076C29.8761 12.878 30.094 13.0956 30.094 13.3644V35.7993C30.094 36.0678 30.3116 36.2857 30.5804 36.2857H35.4785C35.747 36.2857 35.9649 36.0678 35.9649 35.7993V32.3458L35.9629 32.3474C35.1613 32.9575 34.1377 33.5122 32.9326 33.996C34.8948 32.8473 35.7093 31.493 35.912 31.1075C35.9481 31.0385 35.9652 30.9641 35.9652 30.8861V27.7925L35.9633 27.7893V26.0498L35.9645 26.0521Z" fill="#E0B050"/>
<path d="M30.3998 3.6352C30.8451 3.72545 31.0116 4.28301 30.6906 4.60922L28.2555 7.08118C28.0336 7.30642 27.6734 7.30642 27.4515 7.08118L26.0931 5.70217L25.5898 5.19126C25.3679 4.96602 25.0081 4.96602 24.7858 5.19126L24.2829 5.70217L18.3525 11.7222C18.1307 11.9474 17.7709 11.9474 17.5486 11.7222L15.0649 9.20092L14.5254 8.6533C14.2918 8.4162 13.9087 8.43035 13.6928 8.68466L13.2547 9.20092L6.97474 16.5996C6.51551 17.1407 7.24334 17.8795 7.7764 17.4134L13.6928 12.2385C13.9185 12.0411 14.2553 12.0541 14.4659 12.2675L17.0457 14.8863L17.549 15.3969C17.7709 15.6221 18.131 15.6221 18.3529 15.3969L18.8562 14.8863L24.7866 8.86631C25.0085 8.64106 25.3683 8.64106 25.5905 8.86631L26.949 10.2453L27.4523 10.7558C27.6742 10.9811 28.0343 10.9811 28.2562 10.7558L28.7592 10.2453L34.4612 4.45702L37.8788 0.987714C38.3068 0.553286 37.8589 -0.168334 37.2881 0.0354952L30.3225 2.52543C29.777 2.72008 29.8332 3.52047 30.3998 3.6352Z" fill="black"/>
<path d="M26.8958 18.9973C26.5896 18.6908 26.8065 18.1671 27.2397 18.1671H27.4237H27.7322H28.2498L26.3691 16.0179L24.8543 14.2868C24.6606 14.0654 24.316 14.0654 24.1223 14.2868L22.6075 16.0179L20.7268 18.1671H21.0665C21.335 18.1671 21.5529 18.3846 21.5529 18.6534V35.7996C21.5529 36.0681 21.7708 36.2859 22.0392 36.2859H26.9377C27.2062 36.2859 27.424 36.0681 27.424 35.7996V19.7267C27.424 19.5978 27.3728 19.474 27.2816 19.3828L26.8958 18.9973Z" fill="#E0B050"/>
<path d="M17.593 22.7193H18.8832H19.3448H19.709L17.8283 20.5702L16.3135 18.839C16.1198 18.6176 15.7752 18.6176 15.5815 18.839L14.0666 20.5702L12.186 22.7193H12.5257C12.7942 22.7193 13.012 22.9369 13.012 23.2057V35.7996C13.012 36.068 13.2299 36.2859 13.4984 36.2859H18.3969C18.6653 36.2859 18.8832 36.068 18.8832 35.7996V24.211C18.8832 24.082 18.832 23.9583 18.7408 23.8671L17.593 22.7193Z" fill="#E0B050"/>
<path d="M28.4983 23.1019C28.4454 23.0971 28.3932 23.0913 28.34 23.0868C28.3939 23.0974 28.4448 23.11 28.4983 23.121V23.1019Z" fill="#E0B050"/>
<path d="M31.5448 23.4858V23.9126C35.4273 25.1683 37.9097 27.0699 37.9097 29.2026C37.9097 32.9849 30.1218 36.051 20.5147 36.051C16.6628 36.051 13.1049 35.5579 10.2234 34.7231C9.63876 34.5539 9.33257 35.3942 9.89177 35.6349C13.4217 37.1553 18.4993 38.109 24.1439 38.109C34.8085 38.109 43.4537 34.7054 43.4537 30.5067C43.4537 27.341 38.5359 24.6291 31.5448 23.4858Z" fill="#E0B050"/>
<path d="M70.8217 11.322V28.002H68.0857V16.578L62.9977 28.002H61.1017L55.9897 16.578V28.002H53.2537V11.322H56.2057L62.0617 24.402L67.8937 11.322H70.8217ZM73.5058 21.33C73.5058 20.002 73.7778 18.826 74.3218 17.802C74.8818 16.778 75.6338 15.986 76.5778 15.426C77.5378 14.85 78.5938 14.562 79.7458 14.562C80.7858 14.562 81.6898 14.77 82.4578 15.186C83.2418 15.586 83.8658 16.09 84.3298 16.698V14.778H87.0898V28.002H84.3298V26.034C83.8658 26.658 83.2338 27.178 82.4338 27.594C81.6338 28.01 80.7218 28.218 79.6978 28.218C78.5618 28.218 77.5218 27.93 76.5778 27.354C75.6338 26.762 74.8818 25.946 74.3218 24.906C73.7778 23.85 73.5058 22.658 73.5058 21.33ZM84.3298 21.378C84.3298 20.466 84.1378 19.674 83.7538 19.002C83.3858 18.33 82.8978 17.818 82.2898 17.466C81.6818 17.114 81.0258 16.938 80.3218 16.938C79.6178 16.938 78.9618 17.114 78.3538 17.466C77.7458 17.802 77.2498 18.306 76.8658 18.978C76.4978 19.634 76.3138 20.418 76.3138 21.33C76.3138 22.242 76.4978 23.042 76.8658 23.73C77.2498 24.418 77.7458 24.946 78.3538 25.314C78.9778 25.666 79.6338 25.842 80.3218 25.842C81.0258 25.842 81.6818 25.666 82.2898 25.314C82.8978 24.962 83.3858 24.45 83.7538 23.778C84.1378 23.09 84.3298 22.29 84.3298 21.378ZM93.4194 16.698C93.8194 16.026 94.3474 15.506 95.0034 15.138C95.6754 14.754 96.4674 14.562 97.3794 14.562V17.394H96.6834C95.6114 17.394 94.7954 17.666 94.2354 18.21C93.6914 18.754 93.4194 19.698 93.4194 21.042V28.002H90.6834V14.778H93.4194V16.698ZM105.126 21.402L111.222 28.002H107.526L102.63 22.314V28.002H99.8944V10.242H102.63V20.562L107.43 14.778H111.222L105.126 21.402ZM125.303 21.066C125.303 21.562 125.271 22.01 125.207 22.41H115.103C115.183 23.466 115.575 24.314 116.279 24.954C116.983 25.594 117.847 25.914 118.871 25.914C120.343 25.914 121.383 25.298 121.991 24.066H124.943C124.543 25.282 123.815 26.282 122.759 27.066C121.719 27.834 120.423 28.218 118.871 28.218C117.607 28.218 116.471 27.938 115.463 27.378C114.471 26.802 113.687 26.002 113.111 24.978C112.551 23.938 112.271 22.738 112.271 21.378C112.271 20.018 112.543 18.826 113.087 17.802C113.647 16.762 114.423 15.962 115.415 15.402C116.423 14.842 117.575 14.562 118.871 14.562C120.119 14.562 121.231 14.834 122.207 15.378C123.183 15.922 123.943 16.69 124.487 17.682C125.031 18.658 125.303 19.786 125.303 21.066ZM122.447 20.202C122.431 19.194 122.071 18.386 121.367 17.778C120.663 17.17 119.791 16.866 118.751 16.866C117.807 16.866 116.999 17.17 116.327 17.778C115.655 18.37 115.255 19.178 115.127 20.202H122.447ZM131.188 17.01V24.33C131.188 24.826 131.3 25.186 131.524 25.41C131.764 25.618 132.164 25.722 132.724 25.722H134.404V28.002H132.244C131.012 28.002 130.068 27.714 129.412 27.138C128.756 26.562 128.428 25.626 128.428 24.33V17.01H126.868V14.778H128.428V11.49H131.188V14.778H134.404V17.01H131.188ZM153.438 11.442V28.002H151.758V14.778L145.854 28.002H144.63L138.726 14.826V28.002H137.046V11.442H138.822L145.23 25.794L151.638 11.442H153.438ZM158.089 12.426C157.753 12.426 157.465 12.306 157.225 12.066C156.985 11.826 156.865 11.53 156.865 11.178C156.865 10.826 156.985 10.538 157.225 10.314C157.465 10.074 157.753 9.95395 158.089 9.95395C158.425 9.95395 158.713 10.074 158.953 10.314C159.193 10.538 159.313 10.826 159.313 11.178C159.313 11.53 159.193 11.826 158.953 12.066C158.713 12.306 158.425 12.426 158.089 12.426ZM158.929 14.898V28.002H157.249V14.898H158.929ZM168.877 14.658C170.445 14.658 171.725 15.146 172.717 16.122C173.709 17.082 174.205 18.482 174.205 20.322V28.002H172.549V20.514C172.549 19.09 172.189 18.002 171.469 17.25C170.765 16.498 169.797 16.122 168.565 16.122C167.301 16.122 166.293 16.522 165.541 17.322C164.789 18.122 164.413 19.298 164.413 20.85V28.002H162.733V14.898H164.413V17.13C164.829 16.33 165.429 15.722 166.213 15.306C166.997 14.874 167.885 14.658 168.877 14.658ZM183.417 14.706C184.649 14.706 185.721 14.994 186.633 15.57C187.545 16.146 188.201 16.874 188.601 17.754V14.898H190.281V28.338C190.281 29.538 190.017 30.602 189.489 31.53C188.977 32.458 188.257 33.17 187.329 33.666C186.401 34.178 185.345 34.434 184.161 34.434C182.481 34.434 181.081 34.034 179.961 33.234C178.857 32.434 178.169 31.346 177.897 29.97H179.553C179.841 30.882 180.385 31.61 181.185 32.154C182.001 32.698 182.993 32.97 184.161 32.97C185.009 32.97 185.769 32.786 186.441 32.418C187.113 32.066 187.641 31.538 188.025 30.834C188.409 30.13 188.601 29.298 188.601 28.338V25.098C188.185 25.994 187.521 26.738 186.609 27.33C185.713 27.906 184.649 28.194 183.417 28.194C182.217 28.194 181.137 27.914 180.177 27.354C179.233 26.794 178.489 26.002 177.945 24.978C177.417 23.954 177.153 22.77 177.153 21.426C177.153 20.082 177.417 18.906 177.945 17.898C178.489 16.874 179.233 16.09 180.177 15.546C181.137 14.986 182.217 14.706 183.417 14.706ZM188.601 21.45C188.601 20.394 188.385 19.466 187.953 18.666C187.521 17.866 186.929 17.25 186.177 16.818C185.441 16.386 184.625 16.17 183.729 16.17C182.801 16.17 181.969 16.378 181.233 16.794C180.497 17.21 179.913 17.818 179.481 18.618C179.065 19.402 178.857 20.338 178.857 21.426C178.857 22.498 179.065 23.442 179.481 24.258C179.913 25.058 180.497 25.674 181.233 26.106C181.969 26.522 182.801 26.73 183.729 26.73C184.625 26.73 185.441 26.514 186.177 26.082C186.929 25.65 187.521 25.034 187.953 24.234C188.385 23.434 188.601 22.506 188.601 21.45ZM195.796 10.242V28.002H194.116V10.242H195.796ZM211.456 20.778C211.456 21.354 211.44 21.794 211.408 22.098H200.536C200.584 23.09 200.824 23.938 201.256 24.642C201.688 25.346 202.256 25.882 202.96 26.25C203.664 26.602 204.432 26.778 205.264 26.778C206.352 26.778 207.264 26.514 208 25.986C208.752 25.458 209.248 24.746 209.488 23.85H211.264C210.944 25.13 210.256 26.178 209.2 26.994C208.16 27.794 206.848 28.194 205.264 28.194C204.032 28.194 202.928 27.922 201.952 27.378C200.976 26.818 200.208 26.034 199.648 25.026C199.104 24.002 198.832 22.81 198.832 21.45C198.832 20.09 199.104 18.898 199.648 17.874C200.192 16.85 200.952 16.066 201.928 15.522C202.904 14.978 204.016 14.706 205.264 14.706C206.512 14.706 207.6 14.978 208.528 15.522C209.472 16.066 210.192 16.802 210.688 17.73C211.2 18.642 211.456 19.658 211.456 20.778ZM209.752 20.73C209.768 19.754 209.568 18.922 209.152 18.234C208.752 17.546 208.2 17.026 207.496 16.674C206.792 16.322 206.024 16.146 205.192 16.146C203.944 16.146 202.88 16.546 202 17.346C201.12 18.146 200.632 19.274 200.536 20.73H209.752Z" fill="black"/>
</g>
<defs>
<clipPath id="clip0_103_98">
<rect width="214" height="40" fill="white"/>
</clipPath>
</defs>
</svg>
